<svg width="238" height="95" viewBox="0 0 238 95" xmlns="http://www.w3.org/2000/svg" xmlns:xlink="http://www.w3.org/1999/xlink"><title>Forefront Aesthetics Logo Curves FINAL 2016_PANTONE</title><defs><path id="a" d="M237.834 73.134H.024V.288h237.81z"/></defs><g fill="none" fill-rule="evenodd"><g transform="translate(0 21.82)"><mask id="b" fill="#fff"><use xlink:href="#a"/></mask><path d="M156.596 72.73c-16.317 0-30.92-2.583-41.44-5.168-5.262-1.292-9.502-2.585-12.426-3.553-1.463-.485-2.596-.89-3.363-1.17-.384-.142-.676-.253-.872-.33-.196-.074-.295-.114-.295-.114C70.19 51.03 45.885 35.59 28.585 22.993c-8.65-6.3-15.55-11.887-20.285-15.9-2.368-2.006-4.196-3.62-5.43-4.73-.468-.42-.85-.768-1.145-1.04l6.42 2.178c43.8 32.383 93.65 47.824 93.663 47.828 23.832 7.432 44.418 10.102 61.694 10.102 42.793 0 65.272-16.38 66.51-17.308l6.68-.224C211.82 66.412 182.118 72.73 156.597 72.73" fill="#B9D0D3" mask="url(#b)"/><path d="M156.596 73.16c-32.632-.002-58.396-10.305-58.55-10.366C41.936 40.024.72.967.708.958L0 .288l8.338 2.828.026.02c41.003 30.322 87.372 45.79 92.998 47.602.375.12.567.18.568.18 23.795 7.42 44.338 10.084 61.572 10.084 42.532 0 64.913-16.22 66.248-17.215l.063-.047.053-.04 7.968-.27-.43.393c-25.06 22.924-55.075 29.337-80.808 29.336M98.2 62.395l.295.115c.196.077.488.188.872.33.767.28 1.9.685 3.363 1.17 2.924.967 7.164 2.26 12.425 3.552 10.522 2.585 25.124 5.17 41.44 5.17 25.522 0 55.224-6.32 80.098-28.834l-6.68.224c-1.24.928-23.718 17.308-66.51 17.308-17.277 0-37.863-2.67-61.695-10.102-.012-.004-49.863-15.445-93.664-47.827l-6.42-2.176c.296.27.678.62 1.146 1.04 1.234 1.11 3.062 2.723 5.43 4.73 4.735 4.012 11.634 9.6 20.284 15.9C45.884 35.59 70.19 51.03 98.2 62.395M.85.802l-.065.203L.85.802m97.197 61.992" fill="#B9D0D3" mask="url(#b)"/></g><path fill="#717170" d="M97.9 2.596H91.15v6.39h6.704v1.085h-6.704v8.264h-1.283V1.512h8.495l-.46 1.084M105.68 3.065c-.894.38-1.677.9-2.346 1.566-.67.668-1.194 1.453-1.573 2.358-.38.903-.568 1.882-.568 2.934 0 1.053.19 2.032.57 2.936.378.905.902 1.69 1.572 2.355.67.667 1.452 1.19 2.347 1.567.897.38 1.86.568 2.894.568 1.032 0 1.996-.19 2.892-.568.895-.377 1.67-.9 2.323-1.567.652-.665 1.17-1.45 1.548-2.355.38-.904.57-1.883.57-2.936 0-1.052-.19-2.03-.57-2.934-.38-.905-.896-1.69-1.55-2.357-.652-.665-1.427-1.186-2.322-1.565-.896-.378-1.86-.568-2.892-.568-1.034 0-1.997.19-2.893.568zm6.282-1.11c1.064.443 1.992 1.057 2.783 1.838.79.78 1.412 1.698 1.864 2.75.45 1.053.676 2.18.676 3.38 0 1.217-.226 2.347-.677 3.392-.453 1.044-1.075 1.957-1.865 2.738-.79.78-1.72 1.393-2.783 1.838-1.065.444-2.21.666-3.437.666-1.226 0-2.368-.222-3.425-.665-1.057-.444-1.976-1.056-2.76-1.837-.78-.78-1.4-1.694-1.85-2.738-.452-1.045-.678-2.175-.678-3.393 0-1.2.226-2.326.678-3.38.45-1.05 1.07-1.968 1.85-2.75.784-.78 1.703-1.394 2.76-1.838 1.057-.442 2.2-.665 3.425-.665 1.226 0 2.372.222 3.437.664zM127.694 3.52c-.694-.615-1.8-.924-3.317-.924h-2.686v6.587h2.736c1.468 0 2.554-.296 3.256-.888.7-.592 1.052-1.398 1.052-2.418 0-.954-.347-1.74-1.04-2.356zm3.702 15.21l-5.64-8.462h-4.065v8.066h-1.28V1.512h4.234c1.016 0 1.87.118 2.566.357.693.237 1.254.558 1.682.96.427.404.738.868.93 1.394.194.526.29 1.07.29 1.63 0 1.94-1.048 3.303-3.145 4.093l5.47 8.116-1.04.666zM134.3 18.334V1.512h9.004l-.46 1.084h-7.26V9.33h6.97v1.086h-6.97v6.833h7.55l.363 1.084H134.3M154.146 2.596h-6.753v6.39h6.703v1.085h-6.703v8.264h-1.282V1.512h8.496l-.46 1.084M164.02 3.52c-.694-.615-1.8-.924-3.316-.924h-2.686v6.587h2.734c1.47 0 2.555-.296 3.256-.888.702-.592 1.052-1.398 1.052-2.418 0-.954-.346-1.74-1.04-2.356zm3.703 15.21l-5.64-8.462h-4.065v8.066h-1.283V1.512h4.235c1.016 0 1.87.118 2.566.357.693.237 1.254.558 1.682.96.427.404.74.868.932 1.394.194.526.29 1.07.29 1.63 0 1.94-1.05 3.303-3.146 4.093l5.47 8.116-1.04.666zM175.795 3.065c-.896.38-1.68.9-2.348 1.566-.67.668-1.194 1.453-1.573 2.358-.38.903-.57 1.882-.57 2.934 0 1.053.19 2.032.57 2.936.38.905.903 1.69 1.573 2.355.67.667 1.452 1.19 2.348 1.567.894.38 1.86.568 2.892.568 1.032 0 1.996-.19 2.892-.568.894-.377 1.67-.9 2.323-1.567.652-.665 1.17-1.45 1.55-2.355.377-.904.567-1.883.567-2.936 0-1.052-.19-2.03-.568-2.934-.38-.905-.897-1.69-1.55-2.357-.653-.665-1.428-1.186-2.323-1.565-.897-.378-1.86-.568-2.893-.568-1.033 0-1.998.19-2.892.568zm6.28-1.11c1.065.443 1.993 1.057 2.783 1.838.79.78 1.412 1.698 1.864 2.75.452 1.053.677 2.18.677 3.38 0 1.217-.226 2.347-.678 3.392-.452 1.044-1.073 1.957-1.864 2.738-.79.78-1.718 1.393-2.783 1.838-1.066.444-2.21.666-3.436.666-1.228 0-2.37-.222-3.425-.665-1.06-.444-1.978-1.056-2.76-1.837-.784-.78-1.4-1.694-1.85-2.738-.454-1.045-.68-2.175-.68-3.393 0-1.2.226-2.326.68-3.38.45-1.05 1.066-1.968 1.85-2.75.782-.78 1.7-1.394 2.76-1.838 1.056-.442 2.197-.665 3.424-.665 1.225 0 2.37.222 3.435.664zM204.535 18.383L191.78 3.83v14.504h-1.283V1.042l.92.47L204.1 16.015V1.512h1.282v17.316l-.847-.445M220.7 2.596h-6v15.738h-1.282V2.596h-6.39l.386-1.084h13.676l-.39 1.084"/><path d="M60.76 63.31V.063h17.954v1.95H66.56V19.18h14.19v1.884H66.5v1.595s13.428 12.886 15.427 28.05c0 0 4.524 21.668-33.637 31.183l-.326-1.155S73.86 72.945 75.1 50.71c0 0 .786-13.11-8.6-26.09v38.69h-5.74" fill="#00444A"/><path d="M97.06 29.567l-3.155 7.114h6.33l-3.175-7.113zm6.158 13.72l-2.55-5.637h-7.195l-2.57 5.66-.995-.463 6.806-14.954.562-.286 6.958 15.24-1.016.44z" fill="#717170"/><path d="M94.88 36.04h4.378l-2.196-4.92-2.18 4.92zm-3.67 8.12l-2.14-.997 7.166-15.743 1.338-.683 7.506 16.44-2.178.945-2.636-5.83h-6.39l-2.666 5.867zM107.54 42.847v-15.02h8.038l-.41.97h-6.483v6.01h6.223v.97h-6.223v6.1h6.74l.326.97h-8.21" fill="#717170"/><path fill="#717170" d="M116.63 43.49h-9.72V27.185h9.626l-.955 2.252h-6.265v4.73h6.222v2.252h-6.222v4.817h6.562l.753 2.252M127.3 40.612c-.253.55-.595 1.005-1.027 1.365-.432.36-.936.628-1.513.804-.576.177-1.195.265-1.858.265-1.224 0-2.484-.44-3.78-1.32l.43-1.058c.693.484 1.283.822 1.773 1.013.49.19.994.286 1.512.286.433 0 .865-.055 1.297-.165.432-.11.82-.29 1.167-.54.346-.248.623-.578.832-.99.21-.41.314-.924.314-1.54 0-.515-.108-.94-.324-1.278-.216-.338-.5-.625-.854-.86-.353-.234-.753-.432-1.2-.594-.446-.162-.907-.327-1.382-.496-.475-.168-.936-.348-1.383-.54-.446-.19-.846-.43-1.2-.715-.352-.286-.636-.642-.852-1.068-.216-.426-.323-.948-.323-1.565 0-.557.11-1.08.335-1.564.222-.483.525-.905.907-1.265.38-.36.827-.642 1.338-.848.512-.205 1.063-.308 1.653-.308 1.14 0 2.277.315 3.416.946l-.454 1.013c-.62-.338-1.138-.57-1.556-.695-.418-.124-.85-.187-1.296-.187-.447 0-.857.074-1.232.22-.375.147-.702.35-.983.606-.28.257-.5.558-.66.903-.158.345-.237.723-.237 1.134 0 .677.187 1.202.562 1.575.374.375.84.684 1.394.926.554.243 1.16.46 1.815.65.654.19 1.26.438 1.813.738.555.3 1.016.702 1.383 1.2.368.5.552 1.168.552 2.005 0 .748-.127 1.398-.38 1.95"/><path d="M126.5 36.886c.052.07.102.142.15.215.13.207.233.436.303.686-.07-.29-.18-.54-.33-.743-.04-.053-.08-.106-.123-.157zm-3.598 6.8c-1.345 0-2.735-.48-4.13-1.428l-.43-.293.928-2.275.64.448c.648.454 1.2.77 1.64.942.773.302 1.61.308 2.43.098.36-.09.673-.235.957-.44.264-.19.473-.44.636-.763.162-.317.243-.736.243-1.246 0-.386-.075-.698-.222-.928-.167-.26-.392-.487-.67-.672-.31-.206-.668-.383-1.066-.528l-1.38-.494c-.483-.17-.96-.358-1.418-.554-.497-.21-.95-.482-1.348-.805-.42-.34-.764-.77-1.02-1.276-.262-.516-.395-1.14-.395-1.86 0-.65.133-1.267.394-1.836.258-.557.612-1.05 1.052-1.464.436-.41.952-.74 1.536-.974.582-.234 1.216-.353 1.883-.353 1.24 0 2.49.345 3.716 1.025l.516.286-.976 2.18-.59-.323c-.58-.315-1.064-.532-1.437-.644-.703-.208-1.51-.223-2.126.017-.3.118-.566.28-.79.485-.215.198-.387.433-.508.697-.12.26-.178.542-.178.86 0 .502.122.867.372 1.117.317.317.72.584 1.2.794.53.232 1.116.442 1.74.623.696.202 1.348.468 1.94.79.634.343 1.17.808 1.59 1.38.45.61.677 1.415.677 2.39 0 .84-.147 1.586-.437 2.22-.292.637-.695 1.172-1.2 1.59-.493.413-1.075.723-1.728.922-.632.194-1.318.292-2.04.292zM142.133 28.796h-5.36v14.05h-1.144v-14.05h-5.706l.346-.97h12.208l-.345.97" fill="#717170"/><path fill="#717170" d="M137.404 43.49H135V29.437h-5.974l.803-2.252h13.547l-.803 2.252h-5.17v14.05M156.502 42.67v-6.937h-9.832v6.938l-1.145.397v-15.24h1.145v6.938h9.832v-6.938h1.145v15.24l-1.145-.396"/><path fill="#717170" d="M158.276 43.963l-2.404-.833v-6.755H147.3v6.755l-2.405.833V27.186h2.405v6.937h8.572v-6.937h2.404v16.777M162.616 42.847v-15.02h8.038l-.41.97h-6.482v6.01h6.222v.97h-6.222v6.1h6.74l.325.97h-8.21"/><path fill="#717170" d="M171.706 43.49h-9.72V27.185h9.626l-.955 2.252h-6.266v4.73h6.224v2.252h-6.223v4.817h6.563l.753 2.252M185 28.796h-5.357v14.05h-1.146v-14.05h-5.704l.345-.97h12.208l-.345.97"/><path fill="#717170" d="M180.272 43.49h-2.405V29.437h-5.973l.803-2.252h13.548l-.803 2.252h-5.17v14.05M188.372 42.847V27.982l1.145-.44v15.305h-1.145"/><path fill="#717170" d="M190.146 43.49h-2.404V27.537l2.404-.926V43.49M204.23 42.825c-.878.146-1.75.22-2.613.22-1.124 0-2.165-.195-3.122-.583-.96-.39-1.787-.925-2.485-1.608-.7-.683-1.246-1.494-1.642-2.433-.397-.94-.594-1.96-.594-3.06 0-1.146.212-2.196.637-3.15.426-.955.995-1.77 1.708-2.445.713-.675 1.537-1.2 2.474-1.575.936-.374 1.91-.56 2.917-.56.863 0 1.716.08 2.56.24.842.163 1.717.457 2.624.882l-.518 1.058c-.677-.338-1.383-.606-2.118-.804-.734-.2-1.606-.298-2.614-.298-.922 0-1.775.17-2.56.507-.786.338-1.467.803-2.042 1.4-.577.593-1.027 1.294-1.35 2.102-.325.807-.487 1.688-.487 2.642 0 .968.162 1.857.486 2.664.325.808.78 1.505 1.362 2.092.584.588 1.28 1.043 2.085 1.366.807.323 1.693.484 2.658.484.778 0 1.556-.077 2.334-.23.776-.155 1.62-.46 2.527-.915l.39 1.08c-.865.47-1.738.778-2.616.925"/><path d="M201.617 43.687c-1.198 0-2.327-.212-3.355-.63-1.03-.417-1.934-1.002-2.688-1.74-.756-.738-1.357-1.628-1.785-2.643-.43-1.016-.646-2.13-.646-3.315 0-1.233.233-2.38.693-3.415.457-1.027 1.08-1.918 1.852-2.65.768-.728 1.667-1.3 2.672-1.702 1.005-.402 2.064-.606 3.147-.606.896 0 1.797.085 2.675.253.89.17 1.822.484 2.773.93l.59.276-1.088 2.22-.56-.28c-.64-.318-1.313-.574-2.002-.76-.68-.183-1.504-.276-2.454-.276-.833 0-1.613.153-2.316.456-.705.304-1.324.727-1.838 1.258-.516.532-.925 1.17-1.216 1.896-.292.726-.44 1.534-.44 2.4 0 .88.148 1.694.44 2.42.29.725.7 1.356 1.22 1.88.52.523 1.15.935 1.874 1.224.73.292 1.546.44 2.427.44.734 0 1.478-.073 2.214-.22.718-.142 1.516-.43 2.37-.86l.627-.314.82 2.273-.485.263c-.92.5-1.866.835-2.81.992-.908.152-1.822.23-2.715.23M218.243 40.612c-.252.55-.594 1.005-1.026 1.365-.432.36-.936.628-1.512.804-.577.177-1.196.265-1.858.265-1.225 0-2.485-.44-3.782-1.32l.432-1.058c.692.484 1.282.822 1.772 1.013.49.19.993.286 1.512.286.432 0 .864-.055 1.296-.165.432-.11.82-.29 1.167-.54.345-.248.623-.578.832-.99.208-.41.313-.924.313-1.54 0-.515-.108-.94-.324-1.278-.216-.338-.5-.625-.853-.86-.354-.234-.753-.432-1.2-.594-.447-.162-.907-.327-1.383-.496-.475-.168-.936-.348-1.383-.54-.446-.19-.846-.43-1.2-.715-.352-.286-.636-.642-.852-1.068-.216-.426-.324-.948-.324-1.565 0-.557.112-1.08.336-1.564.223-.483.525-.905.907-1.265.38-.36.828-.642 1.34-.848.51-.205 1.062-.308 1.653-.308 1.138 0 2.275.315 3.414.946l-.454 1.013c-.62-.338-1.138-.57-1.556-.695-.418-.124-.85-.187-1.296-.187-.447 0-.857.074-1.232.22-.375.147-.702.35-.983.606-.282.257-.502.558-.66.903-.16.345-.238.723-.238 1.134 0 .677.187 1.202.562 1.575.374.375.84.684 1.394.926.554.243 1.16.46 1.815.65s1.26.438 1.814.738c.555.3 1.016.702 1.384 1.2.368.5.552 1.168.552 2.005 0 .748-.127 1.398-.38 1.95" fill="#717170"/><path d="M217.444 36.886c.052.07.102.142.15.215.13.207.233.436.303.686-.07-.29-.18-.54-.33-.743-.04-.053-.08-.106-.123-.157zm-3.597 6.8c-1.346 0-2.736-.48-4.13-1.428l-.432-.293.93-2.275.64.448c.647.454 1.2.77 1.64.942.773.302 1.61.308 2.43.098.36-.09.672-.235.956-.44.266-.19.474-.44.637-.763.162-.317.243-.736.243-1.246 0-.386-.074-.698-.222-.928-.166-.26-.392-.487-.67-.672-.31-.206-.668-.383-1.066-.528l-1.38-.494c-.483-.17-.96-.358-1.418-.554-.497-.21-.95-.482-1.348-.805-.42-.34-.764-.77-1.02-1.276-.262-.516-.395-1.14-.395-1.86 0-.65.134-1.267.396-1.836.256-.557.61-1.05 1.05-1.464.436-.41.952-.74 1.536-.974.582-.234 1.216-.353 1.884-.353 1.238 0 2.488.345 3.715 1.025l.516.286-.976 2.18-.59-.323c-.58-.315-1.064-.532-1.437-.644-.7-.208-1.51-.223-2.125.017-.3.118-.566.28-.79.485-.215.198-.386.433-.508.697-.12.26-.178.542-.178.86 0 .502.122.867.373 1.117.317.317.72.584 1.2.794.53.232 1.115.442 1.74.623.695.202 1.347.468 1.94.79.633.343 1.168.808 1.59 1.38.45.61.676 1.415.676 2.39 0 .84-.146 1.586-.436 2.22-.29.637-.695 1.172-1.198 1.59-.495.413-1.077.723-1.73.922-.632.194-1.318.292-2.04.292z" fill="#717170"/><path d="M93.168 56.21l-1.45 3.264h2.908l-1.458-3.265zm2.826 6.296l-1.17-2.587H91.52l-1.18 2.597-.455-.213 3.124-6.864.257-.13 3.194 6.994-.466.202zM103.304 55.855h-2.767v2.618h2.747v.445h-2.747v3.386h-.526V55.41h3.483l-.19.445M107.836 59.287c-.093-.233-.218-.435-.376-.607-.16-.17-.346-.307-.56-.404-.216-.098-.45-.147-.7-.147-.25 0-.486.048-.704.146-.22.097-.407.23-.566.4-.158.168-.284.37-.377.606-.092.235-.138.488-.138.758s.046.52.138.753c.093.233.22.433.377.6.16.17.347.303.566.4.218.098.453.147.704.147.25 0 .484-.05.7-.147.214-.097.4-.23.56-.4.158-.167.283-.367.376-.6.093-.233.14-.483.14-.753s-.047-.52-.14-.753zm.482 1.688c-.117.286-.277.536-.482.748-.205.212-.448.377-.728.495-.282.118-.584.177-.908.177-.324 0-.627-.06-.907-.177-.282-.118-.525-.283-.73-.495-.205-.212-.367-.462-.486-.748-.118-.287-.178-.598-.178-.935 0-.337.06-.65.177-.94.12-.29.28-.54.486-.754.205-.212.448-.377.73-.495.28-.117.583-.176.907-.176.324 0 .626.06.908.177.28.12.523.284.728.496.205.213.365.464.482.754.115.29.173.603.173.94 0 .337-.057.648-.172.935zM111.814 58.32c-.093-.06-.187-.105-.283-.135-.095-.03-.212-.046-.35-.046-.22 0-.447.055-.686.166-.237.11-.433.325-.585.642v3.356h-.477v-4.438l.476.284h.02c.144-.136.333-.255.564-.36.232-.104.473-.156.725-.156.23 0 .405.017.524.05.12.034.23.085.337.152l-.266.485M114.045 58.13c-.37 0-.688.12-.952.358-.265.24-.44.568-.526.986h2.887c-.173-.897-.642-1.345-1.41-1.345zm.71-.324c.234.087.445.22.634.4.188.178.34.405.455.68.116.278.173.605.173.982h-3.51c-.033.29-.007.56.08.814.085.253.21.47.376.657.165.184.363.33.595.44.23.106.472.16.723.16.258 0 .5-.042.724-.126.225-.084.456-.214.694-.39l.24.365c-.516.403-1.088.605-1.716.605-.325 0-.622-.06-.893-.182-.27-.12-.505-.288-.704-.5-.198-.213-.352-.467-.46-.763-.11-.297-.164-.62-.164-.97 0-.33.05-.638.154-.92.102-.284.244-.528.426-.734.182-.205.397-.365.645-.48.248-.114.52-.172.818-.172.238 0 .475.044.71.132zM119.004 55.926c-.158-.102-.314-.152-.466-.152-.344 0-.577.116-.7.35-.122.23-.183.59-.183 1.075v.565h.982l-.09.394h-.892v4.144h-.476V58.16h-.556l.09-.395h.465v-.748c0-.586.118-1.01.356-1.273.238-.263.572-.395 1.002-.395.112 0 .228.013.347.04.12.027.215.06.288.1l-.17.436M121.662 58.32c-.093-.06-.187-.105-.282-.135-.097-.03-.214-.046-.353-.046-.218 0-.446.055-.684.166-.238.11-.433.325-.585.642v3.356h-.476v-4.438l.476.284h.02c.145-.136.333-.255.565-.36.23-.104.472-.156.724-.156.23 0 .407.017.526.05.12.034.23.085.337.152l-.268.485M125.778 59.287c-.093-.233-.218-.435-.377-.607-.158-.17-.345-.307-.56-.404-.214-.098-.447-.147-.698-.147-.252 0-.487.048-.705.146-.218.097-.407.23-.565.4-.16.168-.284.37-.377.606-.093.235-.14.488-.14.758s.047.52.14.753c.093.233.218.433.377.6.158.17.347.303.565.4.218.098.453.147.705.147.25 0 .484-.05.698-.147.215-.097.402-.23.56-.4.16-.167.285-.367.378-.6.093-.233.14-.483.14-.753s-.047-.52-.14-.753zm.48 1.688c-.115.286-.275.536-.48.748-.205.212-.448.377-.73.495-.28.118-.583.177-.906.177-.325 0-.627-.06-.908-.177-.28-.118-.524-.283-.73-.495-.204-.212-.366-.462-.485-.748-.12-.287-.18-.598-.18-.935 0-.337.06-.65.18-.94.118-.29.28-.54.485-.754.205-.212.448-.377.73-.495.28-.117.582-.176.907-.176.323 0 .626.06.907.177.28.12.523.284.728.496.205.213.365.464.48.754.116.29.175.603.175.94 0 .337-.06.648-.174.935zM130.608 62.304v-2.588c0-.512-.12-.904-.357-1.177-.237-.274-.555-.41-.95-.41-.325 0-.606.03-.844.095s-.443.154-.615.268v3.81h-.475v-4.538l.476.253v-.02c.206-.1.442-.18.71-.233.268-.054.54-.08.818-.08.516 0 .93.154 1.245.465.314.31.47.77.47 1.384v2.77h-.475M134.1 62.324c-.186.048-.345.07-.477.07-.126 0-.25-.017-.372-.054s-.232-.095-.33-.173c-.1-.077-.18-.176-.24-.297-.06-.122-.088-.27-.088-.445V58.16h-.844v-.395h.844v-1.243l.476-.263v1.505h1.25v.394h-1.25v2.7c0 .194.003.36.01.5.006.137.03.25.074.333.043.084.11.146.198.187.09.04.217.06.382.06.113 0 .212-.01.298-.035.086-.024.194-.066.327-.126l.19.383c-.114.06-.263.114-.448.16M138.642 55.855v6.004h1.904c.403 0 .79-.067 1.16-.197.37-.132.698-.324.982-.577.284-.253.51-.566.674-.94.165-.374.25-.804.25-1.29 0-.444-.076-.85-.225-1.217-.15-.368-.36-.683-.634-.946-.275-.263-.602-.468-.982-.617-.38-.148-.798-.222-1.254-.222h-1.874zm3.634-.122c.473.216.85.493 1.13.83.282.337.48.71.596 1.116.116.407.174.8.174 1.177 0 .398-.063.802-.19 1.213-.124.41-.328.782-.61 1.112-.28.33-.65.6-1.11.81-.46.208-1.023.312-1.69.312h-2.46V55.41h2.37c.72 0 1.318.108 1.79.323zM147.11 58.13c-.37 0-.687.12-.95.358-.266.24-.44.568-.527.986h2.887c-.173-.897-.642-1.345-1.41-1.345zm.71-.324c.235.087.446.22.635.4.188.178.34.405.457.68.115.278.173.605.173.982h-3.51c-.034.29-.008.56.078.814.086.253.212.47.377.657.165.184.364.33.595.44.23.106.473.16.724.16.257 0 .498-.042.723-.126.225-.084.456-.214.695-.39l.237.365c-.515.403-1.087.605-1.715.605-.324 0-.622-.06-.893-.182-.27-.12-.506-.288-.704-.5-.2-.213-.352-.467-.46-.763-.11-.297-.165-.62-.165-.97 0-.33.05-.638.154-.92.102-.284.244-.528.426-.734.182-.205.397-.365.645-.48.248-.114.52-.172.818-.172.24 0 .475.044.71.132zM152.427 58.32c-.093-.06-.187-.105-.282-.135-.097-.03-.214-.046-.353-.046-.218 0-.446.055-.684.166-.238.11-.433.325-.585.642v3.356h-.476v-4.438l.476.284h.02c.145-.136.333-.255.565-.36.23-.104.472-.156.724-.156.23 0 .407.017.526.05.12.034.23.085.337.152l-.268.485M159.19 62.304v-2.578c0-.23-.017-.44-.054-.63-.036-.193-.1-.36-.188-.502-.09-.14-.208-.25-.357-.328-.148-.077-.335-.116-.56-.116-.31 0-.58.052-.808.156-.228.105-.44.25-.64.44.014.033.033.123.06.267.026.145.04.29.04.43v2.86h-.476v-2.587c0-.566-.096-.972-.288-1.218-.192-.246-.486-.37-.883-.37-.324 0-.583.043-.778.128-.195.084-.382.183-.56.298v3.75h-.477v-4.54l.476.274c.172-.094.366-.177.58-.247.215-.07.468-.105.76-.105.376 0 .667.062.872.186.205.126.364.273.476.44.25-.18.508-.33.77-.444.26-.114.582-.172.966-.172.535 0 .927.164 1.175.49.248.328.372.77.372 1.33v2.79h-.476M163.357 59.92c-.294-.015-.575-.008-.846.018-.27.028-.508.083-.714.167-.207.085-.372.205-.496.36-.123.155-.185.357-.185.606 0 .264.085.483.255.658.17.175.382.263.636.263.106 0 .226-.004.36-.014.133-.01.264-.025.39-.046.127-.02.244-.045.35-.076.107-.03.19-.062.25-.096v-1.84zm0 2.314c-.073.02-.17.04-.288.055l-.388.05c-.138.017-.28.03-.426.04-.146.01-.278.015-.397.015-.173 0-.332-.038-.477-.116-.145-.078-.275-.18-.387-.31-.112-.127-.2-.268-.262-.424-.064-.155-.095-.313-.095-.475 0-.323.072-.587.217-.793.146-.205.342-.365.59-.48.25-.114.536-.19.864-.227.328-.037.676-.053 1.047-.046v-.52c0-.623-.33-.936-.992-.936-.212 0-.437.03-.674.087-.237.057-.462.156-.674.298l-.188-.385c.277-.17.555-.28.833-.324.28-.047.54-.07.784-.07.14 0 .29.017.452.05.162.035.312.095.45.183.14.088.255.21.348.364.092.156.14.35.14.587v3.548l-.477-.17zM166.75 62.324c-.187.048-.345.07-.477.07-.126 0-.25-.017-.372-.054s-.232-.095-.332-.173c-.1-.077-.178-.176-.237-.297-.06-.122-.09-.27-.09-.445V58.16h-.842v-.395h.843v-1.243l.477-.263v1.505h1.25v.394h-1.25v2.7c0 .194.004.36.01.5.007.137.03.25.075.333.042.084.11.146.198.187.09.04.216.06.382.06.112 0 .212-.01.297-.035.085-.024.195-.066.327-.126l.188.383c-.112.06-.26.114-.446.16M171.48 59.287c-.093-.233-.218-.435-.377-.607-.16-.17-.346-.307-.56-.404-.216-.098-.45-.147-.7-.147-.25 0-.486.048-.704.146-.22.097-.408.23-.566.4-.16.168-.284.37-.377.606-.093.235-.14.488-.14.758s.047.52.14.753c.093.233.218.433.377.6.158.17.347.303.565.4.217.098.452.147.703.147.25 0 .484-.05.7-.147.214-.097.4-.23.56-.4.16-.167.284-.367.377-.6.092-.233.14-.483.14-.753s-.048-.52-.14-.753zm.48 1.688c-.115.286-.275.536-.48.748-.205.212-.448.377-.73.495-.28.118-.583.177-.907.177-.324 0-.626-.06-.907-.177-.28-.118-.524-.283-.73-.495-.204-.212-.366-.462-.485-.748-.118-.287-.178-.598-.178-.935 0-.337.06-.65.18-.94.118-.29.28-.54.484-.754.206-.212.45-.377.73-.495.28-.117.583-.176.907-.176.324 0 .627.06.908.177.282.12.525.284.73.496.205.213.365.464.48.754.116.29.174.603.174.94 0 .337-.058.648-.173.935zM174.733 62.304c-.04.02-.094.032-.164.036-.07.003-.135.005-.194.005-.126 0-.26-.026-.407-.076-.146-.052-.28-.124-.403-.22-.122-.093-.222-.212-.302-.357-.08-.146-.12-.315-.12-.51V55.46l.477-.15v5.802c0 .12.026.232.08.333.052.1.12.187.203.258.082.07.176.125.282.16.106.038.21.057.308.057.053 0 .1-.008.144-.025l.133-.056-.04.464M178.958 59.287c-.093-.233-.218-.435-.377-.607-.158-.17-.345-.307-.56-.404-.214-.098-.448-.147-.7-.147-.25 0-.485.048-.703.146-.218.097-.406.23-.565.4-.16.168-.285.37-.377.606-.093.235-.14.488-.14.758s.047.52.14.753c.092.233.218.433.377.6.16.17.347.303.565.4.218.098.453.147.704.147.252 0 .486-.05.7-.147.215-.097.402-.23.56-.4.16-.167.285-.367.378-.6.092-.233.14-.483.14-.753s-.048-.52-.14-.753zm.48 1.688c-.115.286-.275.536-.48.748-.205.212-.448.377-.73.495-.28.118-.583.177-.907.177-.323 0-.625-.06-.906-.177-.28-.118-.524-.283-.73-.495-.204-.212-.366-.462-.485-.748-.12-.287-.18-.598-.18-.935 0-.337.06-.65.18-.94.118-.29.28-.54.485-.754.205-.212.448-.377.73-.495.28-.117.582-.176.906-.176.325 0 .628.06.91.177.28.12.523.284.728.496.205.213.365.464.48.754.116.29.174.603.174.94 0 .337-.058.648-.173.935zM183.12 58.69c-.063-.145-.148-.27-.257-.38-.108-.106-.234-.192-.378-.257-.145-.063-.3-.095-.462-.095-.164 0-.317.03-.458.09-.14.06-.264.145-.37.253-.103.11-.186.235-.244.38-.06.145-.088.298-.088.46 0 .17.03.33.09.48.057.152.14.283.244.395.105.11.228.2.37.262.14.064.296.097.466.097.164 0 .317-.033.458-.097.14-.063.265-.15.373-.262.11-.112.194-.24.256-.385.062-.144.093-.3.093-.47 0-.168-.03-.325-.094-.47zm.37 3.823c-.072-.09-.172-.16-.297-.203-.126-.044-.276-.073-.452-.087-.174-.013-.36-.02-.56-.02-.138 0-.3.02-.485.056-.185.036-.362.097-.53.182-.17.084-.31.195-.427.33-.116.136-.173.3-.173.488 0 .23.09.414.272.55.182.135.46.203.838.203.225 0 .453-.032.685-.097.23-.065.437-.15.62-.26.18-.108.33-.228.446-.36.116-.132.173-.266.173-.402 0-.162-.037-.29-.11-.38zm.382.935c-.136.188-.314.353-.538.495-.223.14-.48.254-.773.338-.292.085-.594.127-.907.127-.226 0-.434-.03-.624-.086-.19-.056-.353-.134-.49-.23-.136-.1-.242-.216-.318-.355-.076-.137-.114-.287-.114-.448 0-.27.098-.52.294-.752.196-.233.476-.396.842-.49l.085-.015.084-.015-.03-.03c-.24-.054-.416-.135-.53-.243-.112-.108-.17-.253-.17-.434 0-.195.08-.333.235-.414.156-.08.377-.15.664-.212-.227-.067-.416-.158-.57-.272-.152-.115-.275-.24-.37-.374-.092-.134-.16-.277-.198-.43-.04-.15-.06-.293-.06-.428 0-.188.03-.378.09-.57.06-.192.158-.365.294-.52.136-.155.31-.28.524-.378.213-.098.47-.147.768-.147.18 0 .366.032.56.096.192.063.368.16.528.292.16.13.29.297.39.5.1.202.15.437.15.706 0 .242-.043.454-.126.636s-.19.338-.32.47c-.13.13-.277.238-.444.322-.166.084-.332.15-.498.197-.154.04-.298.078-.434.11-.137.035-.26.07-.37.107-.11.037-.196.08-.26.132-.062.05-.094.116-.094.196 0 .162.073.27.22.328.146.057.327.093.544.106.216.014.45.022.703.026.254.003.488.033.705.09.215.058.397.16.542.308.146.148.22.37.22.666 0 .21-.07.407-.205.596z" fill="#1A1918"/><path d="M186.188 62.304c-.198.405-.402.726-.61.966-.208.24-.407.424-.595.555-.19.132-.36.22-.516.264-.155.042-.28.07-.372.084l-.18-.384c.153-.027.304-.067.453-.12.15-.055.296-.136.44-.243.147-.11.293-.252.442-.43.15-.18.3-.41.452-.693l.144-.278c.05-.097.094-.187.134-.268.04-.08.07-.15.094-.212.023-.06.034-.097.034-.11l-1.884-3.61.397-.233 1.726 3.357 1.617-3.357.397.233-2.172 4.478M197.504 62.223v-5.67h-.02l-2.56 3.578-2.557-3.558h-.02v5.65l-.526.194v-7.218l.31.222 2.795 3.862 2.807-3.872.297-.223v7.23l-.526-.194M201.243 58.13c-.37 0-.688.12-.952.358-.264.24-.44.568-.525.986h2.886c-.17-.897-.64-1.345-1.407-1.345zm.71-.324c.234.087.445.22.634.4.188.178.34.405.456.68.116.278.174.605.174.982h-3.51c-.035.29-.008.56.078.814.086.253.21.47.377.657.165.184.364.33.595.44.23.106.473.16.724.16.26 0 .5-.042.725-.126.225-.084.456-.214.694-.39l.237.365c-.515.403-1.088.605-1.716.605-.323 0-.62-.06-.89-.182-.273-.12-.507-.288-.705-.5-.2-.213-.352-.467-.462-.763-.11-.297-.163-.62-.163-.97 0-.33.05-.638.154-.92.102-.284.244-.528.426-.734.182-.205.396-.365.645-.48.248-.114.52-.172.818-.172.238 0 .474.044.71.132zM207.53 58.574c-.23-.175-.447-.292-.65-.35-.2-.056-.417-.085-.65-.085-.256 0-.493.045-.708.136-.215.09-.4.218-.56.384-.16.165-.28.362-.367.59-.086.23-.13.48-.13.75 0 .276.046.532.135.768.09.236.216.44.382.616.165.176.358.314.58.415.222.1.468.15.74.15.25 0 .467-.036.648-.11.182-.075.376-.17.58-.284v-2.982zm0 3.538c-.237.068-.454.132-.65.192-.194.06-.417.09-.67.09-.316 0-.612-.06-.886-.18-.275-.122-.513-.29-.714-.5-.202-.214-.36-.463-.477-.75-.115-.285-.173-.597-.173-.934 0-.337.056-.65.168-.94.113-.29.27-.54.472-.75.2-.207.44-.37.714-.49.274-.117.574-.176.897-.176.28 0 .52.03.726.086.204.057.403.15.595.278V55.41l.477-.152v7.046l-.476-.192zM209.306 62.304v-4.478l.476-.203v4.68h-.476zm.942-6.56l-.664.677-.664-.676.664-.678.664.678zM214.002 62.314c-.288.054-.544.08-.77.08-.35 0-.668-.054-.956-.165-.287-.113-.534-.27-.738-.472-.205-.202-.366-.445-.482-.728-.115-.283-.173-.596-.173-.94 0-.357.058-.684.173-.98.116-.296.278-.55.487-.764.208-.212.452-.377.733-.495.282-.117.59-.176.928-.176.21 0 .45.03.714.09.264.062.512.146.744.254l-.198.414c-.14-.053-.264-.1-.373-.136-.108-.037-.21-.066-.306-.086-.096-.02-.19-.036-.282-.045-.093-.01-.19-.015-.288-.015-.272 0-.518.047-.74.14-.22.095-.41.227-.57.395-.158.168-.28.37-.366.607-.087.236-.13.495-.13.778 0 .573.166 1.027.496 1.36.33.334.784.5 1.36.5.105 0 .207-.005.307-.015.1-.01.2-.025.298-.045.1-.02.205-.047.317-.08.113-.035.235-.08.367-.133l.21.425c-.22.1-.472.178-.76.232M217.925 59.92c-.294-.015-.576-.008-.846.018-.27.028-.51.083-.717.167-.206.085-.37.205-.495.36-.123.155-.185.357-.185.606 0 .264.085.483.255.658.17.175.382.263.636.263.106 0 .226-.004.36-.014.133-.01.263-.025.39-.046.127-.02.244-.045.35-.076.107-.03.19-.062.25-.096v-1.84zm0 2.314c-.073.02-.17.04-.288.055l-.387.05c-.14.017-.28.03-.426.04-.146.01-.278.015-.397.015-.172 0-.33-.038-.476-.116-.144-.078-.274-.18-.386-.31-.112-.127-.2-.268-.263-.424-.062-.155-.093-.313-.093-.475 0-.323.073-.587.218-.793.145-.205.342-.365.59-.48.25-.114.536-.19.863-.227.327-.037.676-.053 1.047-.046v-.52c0-.623-.33-.936-.992-.936-.212 0-.437.03-.675.087-.238.057-.463.156-.674.298l-.19-.385c.28-.17.557-.28.835-.324.277-.047.538-.07.782-.07.14 0 .29.017.452.05.162.035.312.095.45.183.14.088.255.21.348.364.092.156.138.35.138.587v3.548l-.475-.17zM221.178 62.304c-.04.02-.094.032-.164.036-.07.003-.134.005-.193.005-.125 0-.26-.026-.406-.076-.145-.052-.28-.124-.402-.22-.122-.093-.223-.212-.302-.357-.08-.146-.12-.315-.12-.51V55.46l.477-.15v5.802c0 .12.026.232.08.333.053.1.12.187.203.258.082.07.177.125.282.16.106.038.208.057.308.057.052 0 .1-.008.144-.025.043-.017.087-.036.133-.056l-.04.464M228.205 61.278c-.116.253-.273.462-.472.627-.198.165-.43.288-.694.37-.265.08-.55.12-.854.12-.562 0-1.14-.202-1.735-.606l.2-.486c.316.222.587.377.812.465.225.086.457.13.694.13.2 0 .397-.025.595-.076.2-.05.378-.133.537-.247.16-.115.286-.267.382-.456.095-.187.143-.423.143-.706 0-.236-.05-.432-.15-.586-.098-.156-.23-.287-.39-.395-.163-.107-.347-.198-.55-.273l-.636-.227c-.218-.077-.43-.16-.635-.248-.205-.087-.388-.197-.55-.328-.162-.132-.293-.295-.392-.49-.1-.196-.15-.435-.15-.718 0-.258.053-.496.155-.72.102-.22.24-.415.416-.58.176-.166.382-.295.616-.39.235-.094.488-.14.76-.14.52 0 1.044.144 1.566.433l-.208.465c-.285-.154-.522-.26-.714-.318-.192-.057-.39-.086-.595-.086-.205 0-.394.034-.566.1-.172.07-.323.162-.452.28-.13.117-.23.255-.302.414-.073.158-.11.332-.11.52 0 .31.086.55.26.723.17.173.384.315.638.426.255.11.532.21.833.298.3.088.58.2.834.338.255.14.467.323.635.552.17.23.253.535.253.92 0 .343-.058.642-.173.894M232.78 59.292c-.09-.236-.218-.44-.38-.607-.163-.168-.358-.3-.585-.394-.228-.093-.475-.14-.74-.14-.198 0-.38.015-.545.045-.165.03-.374.103-.625.217v3.174c.23.13.438.216.62.263.182.047.385.07.61.07.264 0 .507-.045.73-.136.22-.09.41-.218.564-.38.155-.162.276-.357.362-.586.085-.23.128-.482.128-.758s-.046-.532-.14-.768zm.492 1.663c-.115.286-.272.537-.47.753-.2.216-.434.384-.705.505-.27.122-.562.182-.873.182-.225 0-.446-.022-.664-.066-.218-.044-.437-.107-.655-.187v2.476h-.476v-6.946l.475.243c.192-.074.406-.133.64-.177.235-.044.467-.066.7-.066.316 0 .61.06.877.177.268.12.5.283.7.49.198.21.35.458.46.744.11.287.164.6.164.936 0 .337-.058.648-.174.935zM236.938 59.92c-.294-.015-.576-.008-.846.018-.27.028-.51.083-.716.167-.206.085-.372.205-.495.36s-.184.357-.184.606c0 .264.085.483.255.658.17.175.383.263.636.263.107 0 .227-.004.36-.014.134-.01.264-.025.39-.046.128-.02.244-.045.35-.076.108-.03.19-.062.252-.096v-1.84zm0 2.314c-.073.02-.17.04-.288.055l-.387.05c-.14.017-.28.03-.426.04-.146.01-.28.015-.397.015-.173 0-.33-.038-.476-.116-.146-.078-.275-.18-.387-.31-.113-.127-.2-.268-.263-.424-.063-.155-.094-.313-.094-.475 0-.323.072-.587.218-.793.145-.205.342-.365.59-.48.248-.114.536-.19.863-.227.328-.037.677-.053 1.048-.046v-.52c0-.623-.33-.936-.993-.936-.21 0-.436.03-.674.087-.237.057-.462.156-.674.298l-.188-.385c.278-.17.556-.28.833-.324.28-.047.54-.07.785-.07.14 0 .29.017.45.05.163.035.314.095.452.183.14.088.255.21.347.364.093.156.14.35.14.587v3.548l-.476-.17z" fill="#1A1918"/><path fill="#8A8B8A" d="M89.865 23.137H237.89v-.51H89.865"/></g></svg>