<?xml version="1.0" encoding="UTF-8" standalone="no"?>
<svg width="19px" height="27px" viewBox="0 0 19 27" version="1.1" xmlns="http://www.w3.org/2000/svg" xmlns:xlink="http://www.w3.org/1999/xlink">
    <!-- Generator: Sketch 41.1 (35376) - http://www.bohemiancoding.com/sketch -->
    <title>directions-icon</title>
    <desc>Created with Sketch.</desc>
    <defs></defs>
    <g id="Symbols" stroke="none" stroke-width="1" fill="none" fill-rule="evenodd">
        <g id="Return-to-FFD-OF-___" transform="translate(-10.000000, -69.000000)" fill="#53B1C1">
            <path d="M19.5,69 C14.2071429,69 10,73.185 10,78.45 C10,85.47 19.5,96 19.5,96 C19.5,96 29,85.47 29,78.45 C29,73.185 24.7928571,69 19.5,69 L19.5,69 Z M19.5,81.825 C17.6,81.825 16.1071429,80.34 16.1071429,78.45 C16.1071429,76.56 17.6,75.075 19.5,75.075 C21.4,75.075 22.8928571,76.56 22.8928571,78.45 C22.8928571,80.34 21.4,81.825 19.5,81.825 L19.5,81.825 Z" id="directions-icon"></path>
        </g>
    </g>
</svg>