<svg width="25" height="25" viewBox="178 70 25 25" xmlns="http://www.w3.org/2000/svg" xmlns:xlink="http://www.w3.org/1999/xlink"><defs><path id="a" d="M.003 21.06H20.61V.025H.002z"/></defs><g fill="none" fill-rule="evenodd" transform="rotate(8 -409.707 1333.737)"><mask id="b" fill="#fff"><use xlink:href="#a"/></mask><path d="M15.383 10.618c0 .443.362.804.81.804.447 0 .81-.36.81-.803 0-1.066-.237-2.094-.707-3.06-.583-1.194-1.49-2.195-2.62-2.894-1.1-.68-2.365-1.048-3.658-1.065-.448-.002-.816.35-.82.795-.007.444.35.808.798.814 2.08.026 3.935 1.196 4.84 3.052.364.743.547 1.536.547 2.356z" fill="#53B1C1" mask="url(#b)"/><path d="M15.565 1.62C13.895.593 11.975.04 10.015.025 9.56.025 9.2.38 9.196.82c-.004.445.355.808.803.812 3.473.03 6.57 1.973 8.082 5.072.602 1.235.908 2.552.907 3.914-.002.443.36.804.808.804.448 0 .81-.36.81-.803.002-1.608-.357-3.16-1.067-4.617-.883-1.81-2.258-3.327-3.975-4.383zM16.81 14.34c-.287-.306-.693-.48-1.114-.48-.31 0-.606.09-.86.264l-1.722 1.098c-.347-.144-1.516-.79-4.134-3.574-2.634-2.8-3.193-3.992-3.31-4.337l1.225-1.628c.465-.582.43-1.427-.08-1.97L4.132.858C3.83.538 3.418.36 2.975.36c-.478 0-.926.21-1.227.58L1 1.85c-.672.787-1.008 1.76-1 2.894.008.997.283 2.124.82 3.35.902 2.06 2.58 4.453 4.724 6.733 1.128 1.2 2.9 2.912 4.94 4.264 1.974 1.308 3.736 1.97 5.238 1.97.976 0 1.838-.282 2.56-.84l.966-.674c.374-.26.615-.67.663-1.12.048-.452-.104-.9-.416-1.233L16.81 14.34" fill="#53B1C1" mask="url(#b)"/></g></svg>